<svg width="1" height="1" viewBox="0 0 1 1" fill="none" xmlns="http://www.w3.org/2000/svg">
<path d="M0.524124 0.200331C0.52335 0.207031 0.52173 0.21327 0.519334 0.219136C0.511792 0.237566 0.504275 0.25603 0.496713 0.274441C0.49538 0.2777 0.493952 0.2809 0.49241 0.283897C0.488854 0.290789 0.484879 0.292669 0.480517 0.289683C0.47585 0.286489 0.472144 0.281358 0.469555 0.274117C0.468945 0.272415 0.46842 0.270515 0.46815 0.268518C0.467184 0.261319 0.46911 0.25494 0.473416 0.251321C0.475345 0.2497 0.477387 0.248631 0.479391 0.247447C0.481779 0.246037 0.484188 0.244868 0.486575 0.24341C0.48949 0.241631 0.492201 0.238989 0.494604 0.235329C0.4984 0.229527 0.500624 0.222611 0.501077 0.214478C0.501552 0.205952 0.500004 0.198925 0.497119 0.193094C0.49569 0.190219 0.493861 0.187918 0.492141 0.185519C0.490783 0.18362 0.489222 0.182094 0.487905 0.180105C0.485327 0.176212 0.485338 0.172471 0.487931 0.167071C0.491275 0.160108 0.49538 0.155261 0.500284 0.152931C0.508838 0.14889 0.517557 0.154289 0.521627 0.166377C0.525016 0.176404 0.525658 0.18788 0.524124 0.200331Z" fill="white"/>
<path d="M0.737551 0.127227C0.730209 0.14227 0.717418 0.142594 0.712656 0.127795C0.71088 0.122281 0.710158 0.115918 0.709599 0.109606C0.709955 0.109075 0.710142 0.108605 0.710364 0.108487C0.714914 0.106213 0.719464 0.103938 0.724022 0.101775C0.724745 0.101429 0.725654 0.101294 0.726244 0.101742C0.730144 0.10477 0.734076 0.107722 0.737795 0.111237C0.739972 0.113292 0.74042 0.117355 0.739407 0.121887C0.738992 0.123759 0.738327 0.125634 0.737551 0.127227Z" fill="white"/>
<path d="M0.996412 0.387139C0.989778 0.382484 0.984056 0.378171 0.977744 0.372458C0.960546 0.356898 0.945901 0.336537 0.934832 0.309238C0.928854 0.294492 0.922529 0.280213 0.916374 0.265701C0.913181 0.25817 0.909568 0.25132 0.905145 0.24587C0.897376 0.236312 0.88845 0.231366 0.877954 0.232902C0.875661 0.233245 0.873359 0.233776 0.871059 0.234229C0.866316 0.235165 0.861668 0.235431 0.85713 0.234011C0.850622 0.231988 0.844894 0.227611 0.83963 0.221716C0.835177 0.216722 0.831141 0.210903 0.827412 0.204485C0.820871 0.193259 0.814408 0.181883 0.807819 0.170747C0.804983 0.165952 0.802005 0.161396 0.798924 0.157065C0.794451 0.150816 0.789539 0.145611 0.783975 0.142061C0.774412 0.135964 0.764531 0.137412 0.754356 0.14674C0.752447 0.14849 0.75053 0.15035 0.748774 0.152561C0.745244 0.157013 0.74173 0.161563 0.738373 0.166431C0.729549 0.179228 0.720858 0.192309 0.712029 0.205089C0.708464 0.210251 0.704738 0.215125 0.700972 0.219805C0.698429 0.222958 0.695729 0.225791 0.692999 0.228352C0.688884 0.232199 0.684747 0.233014 0.680687 0.231094C0.678384 0.229992 0.677065 0.2274 0.676657 0.223372C0.676251 0.219377 0.676253 0.215254 0.677058 0.211079C0.680399 0.193774 0.684397 0.176798 0.690156 0.160736C0.691723 0.156362 0.693255 0.15192 0.694572 0.147375C0.695338 0.144734 0.695844 0.141826 0.696107 0.139033C0.696488 0.134937 0.695464 0.132061 0.693409 0.130479C0.69183 0.129253 0.690107 0.129248 0.688268 0.129896C0.682617 0.131855 0.677374 0.135875 0.672925 0.143062C0.669625 0.148397 0.666563 0.154171 0.663474 0.159863C0.660103 0.166079 0.656931 0.172633 0.65347 0.178695C0.646782 0.190434 0.639321 0.200419 0.631014 0.208199C0.629476 0.209642 0.627869 0.210998 0.626243 0.211876C0.623099 0.213549 0.621278 0.21136 0.621382 0.205948C0.621436 0.202941 0.621836 0.19983 0.622264 0.196786C0.623662 0.186842 0.626451 0.177531 0.62937 0.168347C0.639767 0.13565 0.654714 0.111432 0.674432 0.0962562C0.677989 0.0935197 0.681598 0.0910587 0.685225 0.0887426C0.698978 0.0799474 0.712744 0.0712805 0.726497 0.0624853C0.728612 0.0611393 0.730759 0.0596544 0.73272 0.0576249C0.736264 0.0539671 0.737308 0.0488676 0.735624 0.0434903C0.733191 0.0357282 0.730077 0.0289514 0.725535 0.0245184C0.721103 0.0202088 0.716479 0.0164643 0.711501 0.0137898C0.70686 0.0112963 0.702031 0.00984415 0.696974 0.00963477C0.688031 0.00926977 0.678991 0.0103212 0.66992 0.011829C0.65857 0.0136966 0.647191 0.0160051 0.635851 0.0175724C0.619159 0.0198804 0.603245 0.0291916 0.587901 0.0443405C0.583407 0.0487785 0.579086 0.0537439 0.575162 0.0597376C0.566148 0.0735432 0.560942 0.0900017 0.560045 0.109297C0.559843 0.113651 0.559789 0.118006 0.559846 0.122295C0.560041 0.137241 0.559244 0.152281 0.556893 0.16743C0.554648 0.181877 0.551365 0.195921 0.547011 0.209416C0.539194 0.233666 0.53378 0.258808 0.530276 0.284785C0.528745 0.296142 0.527103 0.307501 0.525197 0.318799C0.523286 0.330128 0.520444 0.341082 0.516611 0.351448C0.509294 0.371203 0.499227 0.383303 0.486432 0.387148C0.480178 0.389039 0.473907 0.390215 0.467649 0.391407C0.463174 0.392263 0.458738 0.392315 0.454411 0.391427C0.443529 0.389208 0.43564 0.380288 0.431221 0.363768C0.430282 0.360251 0.429516 0.356532 0.428924 0.352722C0.426494 0.337221 0.424768 0.321307 0.4241 0.304848C0.42308 0.279817 0.424784 0.254586 0.429637 0.229175C0.431906 0.217299 0.43409 0.205399 0.436418 0.19353C0.437571 0.18765 0.438215 0.181776 0.438474 0.175858C0.438894 0.166453 0.436916 0.161185 0.431993 0.158199C0.429111 0.156461 0.425978 0.156184 0.422864 0.155878C0.411239 0.154781 0.399589 0.15387 0.38795 0.152819C0.365809 0.150813 0.343679 0.148729 0.321532 0.146769C0.318036 0.146452 0.314503 0.146193 0.310949 0.146599C0.299124 0.147984 0.287742 0.154432 0.276859 0.165393C0.272164 0.170125 0.267524 0.175054 0.262963 0.18023C0.241576 0.204495 0.222506 0.233526 0.205304 0.266465C0.194751 0.286678 0.184085 0.306735 0.173474 0.326878C0.166914 0.339329 0.15911 0.347991 0.150225 0.353374C0.139834 0.35968 0.129579 0.361228 0.119527 0.358643C0.116889 0.357963 0.114363 0.356265 0.112006 0.354395C0.107025 0.350452 0.103455 0.343829 0.10064 0.335945C0.0974796 0.327101 0.0951708 0.317434 0.0934814 0.307203C0.090417 0.288616 0.087393 0.270002 0.0843048 0.251428C0.0829049 0.243038 0.0815527 0.234621 0.0798546 0.226483C0.0784421 0.219709 0.076754 0.213126 0.074827 0.206848C0.0720266 0.197728 0.0680069 0.190436 0.0627362 0.185381C0.0524639 0.175524 0.0414997 0.167967 0.0296531 0.163323C0.0253697 0.161647 0.0211327 0.159787 0.0168709 0.158002L0.0204778 0.130451C0.0242869 0.130233 0.0280978 0.129888 0.0318957 0.129812C0.0344149 0.129765 0.0370033 0.129583 0.0393891 0.13033C0.0499255 0.133667 0.0599078 0.139209 0.069376 0.146596C0.0809153 0.155614 0.0888214 0.170373 0.0924861 0.191693C0.0933058 0.196464 0.0940594 0.201292 0.0947817 0.206132C0.0976595 0.2253 0.100449 0.244522 0.1034 0.263635C0.105449 0.276921 0.107979 0.289848 0.110957 0.302399C0.116755 0.326847 0.131387 0.331489 0.142004 0.327905C0.146801 0.326277 0.151304 0.322617 0.15563 0.318001C0.160643 0.312639 0.165143 0.306076 0.169451 0.299063C0.182925 0.277088 0.196415 0.255163 0.209854 0.233121C0.221914 0.213333 0.234408 0.194514 0.24793 0.177857C0.259853 0.163177 0.271926 0.148973 0.284269 0.135529C0.28634 0.133274 0.288475 0.131153 0.290651 0.129339C0.302039 0.119863 0.313069 0.118926 0.323863 0.124291C0.338211 0.131439 0.352996 0.136385 0.368409 0.137992C0.374771 0.13865 0.381189 0.138935 0.38762 0.139015C0.400268 0.139166 0.413019 0.136902 0.425838 0.132823C0.432737 0.130624 0.43964 0.12822 0.446541 0.126339C0.452562 0.124707 0.458549 0.124229 0.464417 0.125006C0.470038 0.125755 0.471635 0.131059 0.469248 0.140685C0.46872 0.142798 0.468103 0.144869 0.46746 0.146905C0.466746 0.149155 0.465986 0.151353 0.465205 0.153548C0.459311 0.170087 0.453358 0.186572 0.44753 0.203166C0.440096 0.224319 0.435392 0.246402 0.43432 0.269673C0.433008 0.298278 0.43734 0.32283 0.446322 0.344007C0.449959 0.352588 0.455058 0.358052 0.461374 0.360133C0.471469 0.363468 0.48184 0.361933 0.492367 0.355373C0.498851 0.351335 0.504302 0.344484 0.508662 0.334876C0.511976 0.327576 0.514648 0.319775 0.516457 0.311305C0.518194 0.30316 0.520024 0.295041 0.521704 0.286873C0.527907 0.256777 0.534131 0.226684 0.540212 0.196559C0.542754 0.183953 0.543919 0.171286 0.543201 0.158755C0.542657 0.149114 0.54113 0.140233 0.538773 0.131893C0.536385 0.123454 0.533963 0.115043 0.531743 0.106448C0.529534 0.0978712 0.530668 0.0893245 0.53485 0.0812507C0.537323 0.076488 0.539862 0.0718438 0.54247 0.0672868C0.546351 0.0604953 0.550679 0.0547378 0.555324 0.0497141C0.561456 0.0430671 0.567787 0.0372673 0.574294 0.0322013C0.594821 0.0162452 0.615791 0.00879253 0.636988 0.00601278C0.643999 0.00509578 0.650994 0.00446255 0.657995 0.00362369C0.666784 0.00257553 0.675576 0.00127403 0.684358 0.000399429C0.697036 -0.000857491 0.709311 0.000789863 0.721017 0.0062265C0.733939 0.0122294 0.745382 0.0223149 0.755253 0.0366468C0.758945 0.0419983 0.762095 0.0482241 0.764563 0.0554351C0.765278 0.0575146 0.765929 0.0597455 0.76632 0.0621055C0.7673 0.0680214 0.765752 0.0730319 0.762174 0.0757659C0.761085 0.076594 0.759895 0.0771884 0.75877 0.0773937C0.755585 0.0779679 0.752391 0.0784935 0.749221 0.0786728C0.742755 0.0790331 0.736328 0.0787 0.729836 0.0794855C0.714815 0.0813012 0.699951 0.0874327 0.68528 0.0974401C0.676929 0.103137 0.66875 0.1096 0.66098 0.118059C0.650177 0.129822 0.641726 0.14523 0.635667 0.164383C0.634375 0.168455 0.63312 0.172579 0.632031 0.176785C0.630582 0.182393 0.630043 0.187978 0.631217 0.193472C0.634772 0.194526 0.638048 0.192519 0.641172 0.188703C0.649138 0.178965 0.656478 0.168046 0.662612 0.154738C0.664989 0.149584 0.667631 0.144713 0.670326 0.140008C0.674154 0.133337 0.678595 0.128353 0.683561 0.125095C0.687391 0.12258 0.691186 0.121678 0.694894 0.123019C0.699491 0.124667 0.702128 0.131374 0.701329 0.139784C0.701065 0.142593 0.700485 0.145446 0.699825 0.148178C0.698343 0.154322 0.696643 0.160378 0.695181 0.16654C0.694069 0.171203 0.693038 0.175924 0.692274 0.18069C0.691872 0.183198 0.691887 0.185959 0.692097 0.188409C0.692431 0.192444 0.694089 0.194472 0.696578 0.193755C0.698333 0.193241 0.700107 0.192015 0.701834 0.190815C0.702936 0.190052 0.703971 0.18879 0.705023 0.187736C0.720658 0.172049 0.735888 0.155016 0.751095 0.137932C0.7543 0.134331 0.757486 0.130712 0.760723 0.127209C0.767058 0.120363 0.773531 0.118037 0.780064 0.120714C0.781953 0.121483 0.783788 0.122548 0.785547 0.12381C0.793443 0.129465 0.800406 0.137361 0.806603 0.146993C0.809903 0.152126 0.812983 0.157646 0.81616 0.162987C0.825035 0.177887 0.833882 0.192833 0.842799 0.207643C0.84959 0.218929 0.85836 0.222589 0.868539 0.220605C0.8739 0.219564 0.879275 0.218366 0.884628 0.217499C0.894635 0.215875 0.903485 0.21937 0.911152 0.228408C0.923632 0.243131 0.933719 0.2615 0.940963 0.284638C0.95077 0.315948 0.965434 0.33831 0.985124 0.351267C0.990038 0.354489 0.994993 0.35751 1 0.360299" fill="white"/>
<path d="M0.9838 0.483484C0.973943 0.474561 0.963295 0.466105 0.953437 0.457198C0.939288 0.444411 0.927568 0.427093 0.918407 0.404865C0.913514 0.392985 0.909142 0.380499 0.905089 0.367604C0.900638 0.353475 0.896124 0.339434 0.891722 0.325263C0.885618 0.305634 0.876403 0.291868 0.864255 0.283558C0.858025 0.279298 0.851809 0.274992 0.845537 0.270886C0.829612 0.260466 0.815859 0.245281 0.805478 0.222628C0.804824 0.221206 0.804148 0.219781 0.803349 0.218628C0.80129 0.215666 0.799307 0.21246 0.797007 0.210042C0.791937 0.204692 0.786117 0.202763 0.779595 0.204512C0.776373 0.205368 0.773242 0.207106 0.770102 0.209081C0.765099 0.212224 0.760084 0.215239 0.755053 0.218205C0.752417 0.219761 0.749739 0.220964 0.747093 0.222487C0.740521 0.226245 0.734108 0.230925 0.728018 0.237308C0.725328 0.240127 0.722771 0.243278 0.720594 0.247297C0.717292 0.253377 0.716945 0.259016 0.719804 0.264082C0.721258 0.266658 0.72298 0.268868 0.724784 0.270738C0.727817 0.273858 0.731001 0.276614 0.734153 0.279446C0.736797 0.281824 0.73927 0.284547 0.741224 0.288369C0.743082 0.292022 0.74467 0.295992 0.745179 0.301395C0.739744 0.306599 0.73421 0.310142 0.728358 0.311666C0.723247 0.312989 0.718126 0.314501 0.713027 0.316412C0.70473 0.319499 0.696451 0.323015 0.688166 0.326294C0.681837 0.328811 0.676638 0.326587 0.672692 0.319129C0.671509 0.316901 0.670262 0.314777 0.669035 0.312607C0.665542 0.30647 0.661432 0.301895 0.656238 0.300084C0.655878 0.299964 0.65551 0.299843 0.655168 0.299646C0.652358 0.297915 0.65065 0.294581 0.650474 0.289169C0.650415 0.287259 0.650496 0.285286 0.650576 0.283328C0.651 0.27367 0.652487 0.264053 0.653862 0.254455C0.655824 0.240705 0.657946 0.226974 0.661073 0.213499C0.662064 0.20925 0.662911 0.204921 0.663649 0.20058C0.664361 0.196379 0.664303 0.192375 0.663109 0.188719C0.660184 0.189386 0.657621 0.191284 0.655301 0.194319C0.652572 0.197879 0.649855 0.20152 0.647317 0.205482C0.642332 0.213274 0.637471 0.221303 0.63258 0.22928C0.625687 0.240504 0.618801 0.251728 0.611932 0.262986C0.609071 0.267673 0.605862 0.270909 0.60219 0.272665C0.599581 0.273907 0.59771 0.272775 0.596308 0.269634C0.594219 0.264988 0.593245 0.259596 0.593922 0.253075C0.594469 0.247824 0.594902 0.242544 0.595515 0.2373C0.597101 0.223889 0.599529 0.210747 0.603311 0.198012C0.608221 0.181504 0.613011 0.164904 0.617806 0.148319C0.621402 0.135881 0.624936 0.123404 0.628466 0.11091C0.629219 0.108252 0.629182 0.106456 0.628522 0.106317C0.62744 0.106083 0.626873 0.107653 0.626281 0.108854C0.621479 0.118571 0.61654 0.128097 0.611954 0.138075C0.599894 0.164334 0.587939 0.190748 0.576031 0.217198C0.566939 0.237387 0.560249 0.259275 0.556327 0.282874C0.553762 0.2983 0.551447 0.313786 0.548931 0.329233C0.546272 0.345553 0.543605 0.361871 0.540746 0.378136C0.539566 0.384838 0.538067 0.391503 0.536349 0.397985C0.53077 0.419096 0.522254 0.436749 0.511689 0.451758C0.499523 0.469028 0.486038 0.481121 0.471625 0.489382C0.45616 0.498252 0.440792 0.500916 0.425507 0.499736C0.423011 0.499548 0.420562 0.49889 0.418152 0.498108C0.408472 0.494979 0.401573 0.48587 0.397369 0.471261C0.396213 0.46726 0.395324 0.462956 0.39447 0.458672C0.392199 0.447313 0.391038 0.435238 0.38998 0.423112C0.387615 0.395914 0.386599 0.368154 0.385662 0.340356C0.384976 0.320041 0.384491 0.299654 0.383779 0.279367C0.383068 0.259065 0.377921 0.243557 0.368785 0.232671C0.360142 0.222364 0.350193 0.216508 0.339126 0.214633C0.33328 0.213636 0.327315 0.214054 0.321292 0.215305C0.302246 0.219217 0.28448 0.231363 0.268202 0.252797C0.255549 0.269457 0.244822 0.289301 0.2353 0.31109C0.225389 0.333771 0.217217 0.357918 0.209933 0.382816C0.207572 0.39089 0.205293 0.399005 0.202986 0.407118C0.201144 0.413585 0.199024 0.419816 0.196265 0.425466C0.192232 0.433699 0.18741 0.43856 0.18148 0.439441C0.178519 0.439882 0.175635 0.43984 0.172824 0.43914C0.170012 0.43844 0.167225 0.437601 0.164456 0.436684C0.153972 0.433178 0.143359 0.430482 0.132503 0.429186C0.122142 0.427947 0.111678 0.427885 0.101052 0.429739C0.0960748 0.430602 0.0910922 0.431733 0.0861086 0.432817C0.0760157 0.434986 0.0680906 0.43028 0.0631087 0.416376C0.0617473 0.41259 0.0605007 0.408658 0.0593794 0.404613C0.0549914 0.388762 0.0506644 0.372839 0.0463427 0.356933C0.0431048 0.345019 0.0390431 0.334106 0.0337679 0.324864C0.0294218 0.317249 0.0252413 0.309384 0.0212189 0.301267C0.0190849 0.296965 0.0166128 0.293274 0.013716 0.290408C0.0120525 0.28876 0.010278 0.287623 0.00823862 0.287439C0.00549279 0.28719 0.00274378 0.28691 0 0.286646L0.00343505 0.260407C0.00355514 0.260278 0.00366796 0.260148 0.003786 0.260035C0.00760302 0.256773 0.0109706 0.257282 0.0142616 0.260177C0.0190141 0.264349 0.0239772 0.267925 0.0284326 0.272904C0.0385011 0.28415 0.0462591 0.298971 0.051211 0.318058C0.0561524 0.337111 0.0609334 0.356321 0.0657973 0.375461C0.0671783 0.380899 0.0684723 0.386439 0.0700325 0.391691C0.0732466 0.402492 0.0783777 0.409513 0.085542 0.412151C0.0895139 0.413617 0.093708 0.413553 0.097912 0.41319C0.113297 0.41186 0.128632 0.411079 0.143854 0.41184C0.151653 0.412217 0.159401 0.412875 0.167097 0.414034C0.169447 0.41438 0.171878 0.414498 0.174285 0.413962C0.180101 0.412656 0.185057 0.40762 0.188936 0.39921C0.19089 0.394976 0.19271 0.390535 0.19438 0.385998C0.198031 0.37612 0.201555 0.366147 0.20512 0.356196C0.214332 0.33047 0.224332 0.305595 0.235936 0.282424C0.242313 0.269683 0.249068 0.257604 0.256589 0.246816C0.275576 0.219551 0.296553 0.203535 0.319592 0.198855C0.33041 0.196658 0.340962 0.196729 0.351151 0.200186C0.360091 0.203215 0.368526 0.208138 0.376262 0.21536C0.38718 0.225576 0.39285 0.242048 0.393292 0.264683C0.393846 0.29304 0.39443 0.3214 0.395047 0.349732C0.39544 0.367556 0.396228 0.385234 0.398034 0.402457C0.399434 0.415748 0.401509 0.428545 0.404624 0.440555C0.406084 0.446177 0.407831 0.451466 0.410076 0.456162C0.415613 0.467797 0.423057 0.474431 0.432076 0.476978C0.440968 0.479478 0.450088 0.47815 0.459364 0.474509C0.47311 0.469091 0.486456 0.460535 0.499386 0.449077C0.51522 0.43503 0.526002 0.413353 0.532378 0.385481C0.536429 0.367765 0.539711 0.349788 0.542592 0.331718C0.54551 0.313429 0.548391 0.295137 0.551338 0.276852C0.55427 0.258676 0.558365 0.241076 0.564845 0.224731C0.566153 0.221438 0.56752 0.218199 0.568913 0.214995C0.581213 0.186733 0.593558 0.158524 0.605826 0.130227C0.615433 0.108067 0.626745 0.0889869 0.639892 0.0731128C0.641232 0.0714886 0.642597 0.069899 0.644005 0.0684887C0.644937 0.0675636 0.645947 0.0667742 0.64695 0.0663171C0.651229 0.0644239 0.654095 0.0688729 0.65338 0.0761982C0.652895 0.0811391 0.651634 0.0857063 0.64972 0.0898506C0.648701 0.0920663 0.647602 0.0942095 0.646472 0.096254C0.633046 0.120566 0.622751 0.147977 0.614455 0.177343C0.610046 0.192956 0.605927 0.208713 0.602568 0.224858C0.600837 0.233178 0.600395 0.241455 0.600596 0.249661C0.600657 0.252174 0.601031 0.254722 0.601642 0.256869C0.602757 0.26085 0.605086 0.261749 0.607699 0.259524C0.608652 0.258712 0.609597 0.25763 0.610408 0.25639C0.614621 0.249937 0.618783 0.243415 0.622948 0.236878C0.623104 0.236642 0.623121 0.236121 0.623215 0.235687C0.622683 0.234961 0.62231 0.236013 0.621965 0.236449C0.619662 0.239407 0.617405 0.242513 0.615079 0.245421C0.613644 0.247209 0.612155 0.248959 0.610593 0.250304C0.607744 0.252757 0.605496 0.251407 0.604591 0.246784C0.603819 0.242827 0.603578 0.238533 0.603933 0.234133C0.604246 0.230219 0.604678 0.226192 0.605508 0.222385C0.611388 0.195535 0.618536 0.16948 0.628132 0.144987C0.636536 0.123515 0.646764 0.104947 0.65883 0.0891718C0.662743 0.0840493 0.6663 0.0780456 0.669912 0.0722386C0.670977 0.0705198 0.671809 0.0682193 0.672527 0.0660011C0.67374 0.0622532 0.673512 0.0590394 0.671765 0.0568428C0.670651 0.0554475 0.669314 0.0543442 0.667926 0.0537425C0.663378 0.0517829 0.658644 0.0516896 0.653676 0.0538376C0.639667 0.05986 0.627137 0.0718075 0.615925 0.0891067C0.608916 0.0999205 0.60282 0.112091 0.597694 0.125466C0.590566 0.144053 0.58365 0.162823 0.57668 0.181556C0.572426 0.192999 0.56828 0.204519 0.564033 0.215963C0.557395 0.233845 0.552202 0.252573 0.548715 0.272224C0.546602 0.284149 0.544694 0.296129 0.542854 0.3081C0.539504 0.329924 0.535297 0.351476 0.530972 0.37303C0.526387 0.395887 0.518537 0.415043 0.506538 0.429461C0.503967 0.432548 0.501282 0.435494 0.498491 0.437731C0.485877 0.447845 0.473029 0.456029 0.459755 0.460485C0.453974 0.46243 0.448251 0.463081 0.442567 0.463038C0.43761 0.463015 0.43289 0.461527 0.428431 0.45888C0.421417 0.454706 0.415938 0.447296 0.412144 0.436651C0.410671 0.432535 0.4094 0.428108 0.408339 0.423547C0.403405 0.402353 0.401215 0.379567 0.40121 0.355571C0.401203 0.324659 0.401211 0.293749 0.401165 0.262864C0.401156 0.25617 0.400964 0.249535 0.400788 0.242886C0.400718 0.240324 0.400518 0.237796 0.400253 0.235323C0.398457 0.218641 0.3929 0.207669 0.383699 0.202406C0.377858 0.199062 0.371777 0.196707 0.365558 0.195065C0.356169 0.192588 0.346758 0.190282 0.337299 0.188225C0.319236 0.184287 0.301063 0.187775 0.282791 0.201481C0.271957 0.209593 0.262068 0.22073 0.252863 0.234133C0.238112 0.255614 0.224785 0.279446 0.212792 0.305363C0.207077 0.31772 0.201732 0.330514 0.196278 0.343186C0.19343 0.349793 0.190754 0.356611 0.187905 0.363234C0.180365 0.380744 0.17059 0.390562 0.158837 0.392637C0.153873 0.393517 0.148917 0.393541 0.144019 0.39335C0.132566 0.392906 0.121057 0.39317 0.109463 0.394423C0.105382 0.394863 0.101402 0.394412 0.0975608 0.39285C0.0894619 0.389583 0.0835947 0.381653 0.0797623 0.369608C0.0784615 0.365527 0.077409 0.361126 0.0764644 0.356689C0.0714735 0.333284 0.0665563 0.309824 0.0616131 0.286393C0.0592655 0.275278 0.0560433 0.265158 0.0517136 0.256293C0.0447721 0.242103 0.0357536 0.2328 0.0252212 0.227069C0.0198143 0.224123 0.0143765 0.221302 0.00895417 0.218418L0.0127329 0.189554C0.0163369 0.190058 0.0199891 0.190251 0.0235315 0.191113C0.028538 0.192331 0.0336188 0.19332 0.0382325 0.196414C0.0458879 0.201549 0.0527047 0.208699 0.0585042 0.21827C0.0667152 0.231827 0.0717785 0.24888 0.0745295 0.26851C0.0782325 0.294941 0.0831163 0.320458 0.0888058 0.345338C0.0893734 0.347814 0.0899867 0.350278 0.0907056 0.352612C0.0955835 0.368661 0.103846 0.376196 0.114917 0.376406C0.120716 0.376526 0.126532 0.376456 0.132375 0.376073C0.138083 0.375706 0.143818 0.375183 0.149557 0.374074C0.157557 0.372524 0.165006 0.366962 0.171833 0.357936C0.175665 0.352868 0.179042 0.347002 0.182113 0.340595C0.188842 0.326577 0.195574 0.312591 0.20229 0.298557C0.208396 0.285801 0.214652 0.273252 0.221268 0.26122C0.232365 0.241021 0.244371 0.222718 0.257598 0.206916C0.267198 0.195445 0.277237 0.185752 0.287934 0.178799C0.2942 0.174736 0.300532 0.171791 0.306972 0.170619C0.31314 0.169496 0.319143 0.169971 0.325103 0.170885C0.33069 0.171726 0.336255 0.172675 0.341831 0.173593C0.344926 0.174103 0.348038 0.174536 0.351103 0.175217C0.361783 0.177571 0.372466 0.179958 0.383116 0.182483C0.388748 0.18382 0.394364 0.185283 0.399673 0.188185C0.406345 0.191829 0.410503 0.199581 0.411676 0.211672C0.412196 0.217044 0.412509 0.222647 0.412364 0.228261C0.411735 0.251757 0.410879 0.275291 0.410137 0.298806C0.40964 0.314705 0.409357 0.330549 0.410012 0.34615C0.41081 0.365273 0.413046 0.383432 0.41777 0.399924C0.419719 0.406711 0.421951 0.413134 0.424959 0.418582C0.428729 0.425418 0.433258 0.430341 0.43883 0.432702C0.445658 0.435602 0.45283 0.435703 0.460149 0.434345C0.474013 0.431796 0.487408 0.423991 0.500439 0.412608C0.502244 0.411036 0.504004 0.40919 0.505708 0.407258C0.513235 0.39874 0.519089 0.387747 0.522846 0.373852C0.524145 0.369051 0.525289 0.364138 0.526388 0.359235C0.530813 0.339563 0.534684 0.319734 0.537677 0.29963C0.538844 0.291785 0.540071 0.283931 0.541345 0.276114C0.544195 0.258627 0.54815 0.241645 0.5534 0.22524C0.55718 0.213425 0.561048 0.201668 0.564883 0.189875C0.572279 0.167099 0.578908 0.143824 0.585434 0.120489C0.592936 0.0936972 0.604308 0.0731967 0.619801 0.0592225C0.634525 0.0459381 0.649665 0.0376968 0.66534 0.0348293C0.672164 0.0335898 0.678842 0.0334122 0.685011 0.0370625C0.687966 0.0388095 0.690952 0.0405442 0.693727 0.0428258C0.697105 0.04562 0.697439 0.0510027 0.694758 0.0568996C0.693845 0.0589212 0.692736 0.0608095 0.691566 0.0623736C0.688968 0.0658375 0.686337 0.069266 0.683598 0.072349C0.676392 0.0804442 0.669099 0.0882442 0.661888 0.0963229C0.650391 0.109212 0.640641 0.125314 0.632564 0.144459C0.626098 0.159791 0.621062 0.17619 0.616993 0.193253C0.615326 0.200249 0.613878 0.207364 0.612455 0.214466C0.611141 0.22101 0.611739 0.226914 0.613111 0.232478C0.613773 0.23249 0.61427 0.232578 0.614773 0.232508C0.618653 0.231918 0.622019 0.22889 0.625148 0.224186C0.636529 0.207049 0.648008 0.190129 0.659342 0.172907C0.663556 0.166502 0.667455 0.159459 0.671549 0.152787C0.673237 0.150028 0.674996 0.147342 0.676837 0.144934C0.679434 0.141533 0.68236 0.14001 0.685345 0.139778C0.688582 0.139542 0.689959 0.143378 0.688652 0.148749C0.688298 0.150216 0.687775 0.151615 0.687316 0.153038C0.686596 0.155272 0.685786 0.157464 0.685135 0.159737C0.679302 0.18009 0.67349 0.200444 0.667698 0.220817C0.666932 0.223521 0.66619 0.22626 0.665633 0.229052C0.662991 0.242423 0.664006 0.253751 0.669291 0.262582C0.669793 0.263417 0.670319 0.264238 0.670882 0.264952C0.672878 0.267494 0.674557 0.270539 0.675996 0.274017C0.679045 0.281405 0.683492 0.284083 0.689212 0.282274C0.693063 0.281062 0.696047 0.279656 0.697385 0.269436C0.698067 0.264232 0.699138 0.258977 0.700442 0.25397C0.703823 0.241032 0.709372 0.231131 0.716495 0.223724C0.719292 0.220822 0.722131 0.218051 0.724881 0.215001C0.73308 0.205909 0.740509 0.195095 0.747343 0.182977C0.749446 0.179235 0.751485 0.175374 0.753647 0.17175C0.759425 0.162065 0.765942 0.157428 0.773367 0.158303C0.781285 0.159234 0.788175 0.163346 0.794078 0.17128C0.804175 0.184845 0.813547 0.199612 0.821839 0.216429C0.832112 0.237262 0.845735 0.249276 0.862674 0.251722C0.867643 0.252445 0.872685 0.252605 0.877679 0.253124C0.890389 0.25444 0.900316 0.263275 0.907495 0.27976C0.914879 0.296712 0.922416 0.313443 0.929898 0.330263C0.940654 0.354434 0.953422 0.37501 0.968163 0.392052C0.976124 0.401267 0.983805 0.409751 0.992584 0.416664C0.992584 0.416664 0.989484 0.439388 0.989431 0.440746C0.989335 0.443336 0.988449 0.44065 0.987368 0.439846C0.977577 0.432612 0.968429 0.423739 0.959982 0.413058C0.94712 0.3968 0.9363 0.377111 0.926924 0.355C0.923542 0.347004 0.92024 0.338905 0.916867 0.330893C0.910473 0.315672 0.904059 0.300495 0.897663 0.285289C0.894167 0.276978 0.889356 0.271785 0.88327 0.269698C0.874981 0.26687 0.866641 0.264258 0.858335 0.261507C0.851337 0.259174 0.84458 0.255901 0.838314 0.250796C0.828348 0.242655 0.820417 0.230668 0.814459 0.214989C0.807104 0.195629 0.796762 0.182528 0.783727 0.175085C0.780977 0.17352 0.778147 0.172342 0.775007 0.172795C0.76932 0.173624 0.764398 0.178061 0.76014 0.185365C0.751035 0.200984 0.740656 0.213002 0.729238 0.221856C0.72078 0.228429 0.714422 0.239222 0.708721 0.25158C0.706941 0.255438 0.706579 0.259552 0.707549 0.263405C0.708154 0.265821 0.709001 0.268074 0.709937 0.270099C0.711975 0.274518 0.714148 0.278745 0.716223 0.283104C0.716622 0.283943 0.71682 0.285075 0.717184 0.28629C0.715599 0.287649 0.714285 0.288848 0.712948 0.289885C0.7059 0.295366 0.698681 0.298495 0.691341 0.300295C0.684435 0.301985 0.678584 0.299449 0.673912 0.292242C0.670074 0.286319 0.666273 0.2804 0.66207 0.27518C0.658519 0.27078 0.657075 0.264082 0.657687 0.255857C0.657879 0.253262 0.658253 0.250576 0.658826 0.248056C0.662819 0.230334 0.666888 0.212652 0.670937 0.194952C0.673329 0.184503 0.675756 0.174073 0.678078 0.163599C0.678739 0.160629 0.679086 0.157528 0.679529 0.154486C0.67961 0.153924 0.679458 0.153336 0.679382 0.152344C0.678666 0.152802 0.678051 0.153049 0.677491 0.153556C0.674593 0.156162 0.671884 0.159407 0.669472 0.163304C0.666465 0.168149 0.663576 0.173213 0.66067 0.178244C0.660394 0.17872 0.659625 0.179299 0.660142 0.180309C0.660406 0.180149 0.660687 0.180086 0.66089 0.179823C0.662899 0.177371 0.664892 0.174869 0.666901 0.172417C0.667788 0.171328 0.66867 0.17016 0.669615 0.169252C0.67105 0.16786 0.672194 0.169085 0.672015 0.171745C0.671911 0.173271 0.671779 0.174842 0.671503 0.176333C0.670265 0.183029 0.669076 0.189745 0.667683 0.196391C0.664321 0.212504 0.66079 0.22855 0.657472 0.244667C0.656141 0.251114 0.65548 0.257684 0.655204 0.264298C0.654821 0.273247 0.656459 0.280047 0.660337 0.284928C0.665171 0.291012 0.669956 0.297185 0.674751 0.303344C0.680152 0.310269 0.686529 0.311834 0.693809 0.308743C0.702345 0.305128 0.710889 0.301784 0.719419 0.298153C0.721432 0.297303 0.723443 0.295898 0.725387 0.29439C0.726561 0.293477 0.727807 0.292286 0.728417 0.289881C0.72758 0.284901 0.725771 0.281381 0.72325 0.278795C0.720812 0.276314 0.718386 0.273786 0.716083 0.271003C0.714746 0.269392 0.713494 0.267474 0.7125 0.265268C0.710094 0.259951 0.710456 0.253696 0.713716 0.248102C0.716728 0.242941 0.719965 0.238138 0.723253 0.233515C0.726676 0.228702 0.730512 0.225125 0.734551 0.222538C0.746004 0.215211 0.756964 0.205908 0.7671 0.192943C0.771454 0.187379 0.776237 0.185242 0.781199 0.186011C0.783835 0.186422 0.78626 0.187601 0.788625 0.189122C0.798036 0.195202 0.805682 0.204968 0.811341 0.218822C0.817446 0.233773 0.825339 0.245311 0.835038 0.253248C0.838998 0.256488 0.843171 0.259183 0.847394 0.261597C0.857456 0.267323 0.86762 0.272711 0.877722 0.278299C0.88551 0.282593 0.891687 0.290352 0.896192 0.301648C0.897449 0.30482 0.898724 0.307978 0.899876 0.311281C0.90709 0.331718 0.914426 0.352011 0.921413 0.372725C0.92859 0.394015 0.93771 0.412163 0.948941 0.427141C0.957689 0.438792 0.967393 0.448093 0.977536 0.456286C0.980283 0.458501 0.983881 0.459893 0.986627 0.462108" fill="white"/>
</svg>
